<?xml version="1.0"?>
<svg xmlns="http://www.w3.org/2000/svg" xmlns:xlink="http://www.w3.org/1999/xlink" xmlns:svgjs="http://svgjs.com/svgjs" version="1.1" width="512" height="512" x="0" y="0" viewBox="0 0 427.1 427.1" style="enable-background:new 0 0 512 512" xml:space="preserve" class=""><g>
<g xmlns="http://www.w3.org/2000/svg">
	<g>
		<path d="M93.55,156.5c-31.5,0-57,25.5-57,57s25.5,57,57,57s57-25.5,57-57C150.45,182.1,124.95,156.6,93.55,156.5z M93.55,250.5    c-20.4,0-37-16.5-37-37c0-20.4,16.5-37,37-37c20.4,0,37,16.5,37,37C130.45,233.9,113.95,250.4,93.55,250.5z" fill="#f6aa16" data-original="#000000" style="" class=""/>
	</g>
</g>
<g xmlns="http://www.w3.org/2000/svg">
	<g>
		<path d="M380.55,172.5h-203.5c-5.5,0-10,4.5-10,10s4.5,10,10,10h203.5c5.5,0,10-4.5,10-10S386.05,172.5,380.55,172.5z" fill="#f6aa16" data-original="#000000" style="" class=""/>
	</g>
</g>
<g xmlns="http://www.w3.org/2000/svg">
	<g>
		<path d="M286.65,234.5h-109.6c-5.5,0-10,4.5-10,10s4.4,10,10,10h109.6c5.5,0,10-4.5,10-10S292.15,234.5,286.65,234.5z" fill="#f6aa16" data-original="#000000" style="" class=""/>
	</g>
</g>
<g xmlns="http://www.w3.org/2000/svg">
	<g>
		<path d="M93.55,0c-31.5,0-57,25.5-57,57s25.5,57,57,57s57-25.5,57-57C150.45,25.5,124.95,0,93.55,0z M93.55,93.9    c-20.4,0-37-16.5-37-37s16.5-37,37-37c20.4,0,37,16.5,37,37C130.45,77.4,113.95,93.9,93.55,93.9z" fill="#f6aa16" data-original="#000000" style="" class=""/>
	</g>
</g>
<g xmlns="http://www.w3.org/2000/svg">
	<g>
		<path d="M380.55,15.5h-203.5c-5.5,0-10,4.5-10,10s4.5,10,10,10h203.5c5.5,0,10-4.5,10-10S386.05,15.5,380.55,15.5z" fill="#f6aa16" data-original="#000000" style="" class=""/>
	</g>
</g>
<g xmlns="http://www.w3.org/2000/svg">
	<g>
		<path d="M286.65,78.5h-109.6c-5.5,0-10,4.5-10,10s4.4,10,10,10h109.6c5.5,0,10-4.5,10-10S292.15,78.5,286.65,78.5z" fill="#f6aa16" data-original="#000000" style="" class=""/>
	</g>
</g>
<g xmlns="http://www.w3.org/2000/svg">
	<g>
		<path d="M93.55,313.1c-31.5,0-57,25.5-57,57s25.5,57,57,57s57-25.5,57-57C150.45,338.6,124.95,313.1,93.55,313.1z M93.55,407    c-20.4,0-37-16.5-37-37c0-20.4,16.5-37,37-37c20.4,0,37,16.5,37,37C130.45,390.5,113.95,407,93.55,407z" fill="#f6aa16" data-original="#000000" style="" class=""/>
	</g>
</g>
<g xmlns="http://www.w3.org/2000/svg">
	<g>
		<path d="M380.55,328.5h-203.5c-5.5,0-10,4.5-10,10s4.5,10,10,10h203.5c5.5,0,10-4.5,10-10S386.05,328.5,380.55,328.5z" fill="#f6aa16" data-original="#000000" style="" class=""/>
	</g>
</g>
<g xmlns="http://www.w3.org/2000/svg">
	<g>
		<path d="M286.65,391.5h-109.6c-5.5,0-10,4.5-10,10s4.5,10,10,10h109.6c5.5,0,10-4.5,10-10S292.15,391.5,286.65,391.5z" fill="#f6aa16" data-original="#000000" style="" class=""/>
	</g>
</g>
<g xmlns="http://www.w3.org/2000/svg">
</g>
<g xmlns="http://www.w3.org/2000/svg">
</g>
<g xmlns="http://www.w3.org/2000/svg">
</g>
<g xmlns="http://www.w3.org/2000/svg">
</g>
<g xmlns="http://www.w3.org/2000/svg">
</g>
<g xmlns="http://www.w3.org/2000/svg">
</g>
<g xmlns="http://www.w3.org/2000/svg">
</g>
<g xmlns="http://www.w3.org/2000/svg">
</g>
<g xmlns="http://www.w3.org/2000/svg">
</g>
<g xmlns="http://www.w3.org/2000/svg">
</g>
<g xmlns="http://www.w3.org/2000/svg">
</g>
<g xmlns="http://www.w3.org/2000/svg">
</g>
<g xmlns="http://www.w3.org/2000/svg">
</g>
<g xmlns="http://www.w3.org/2000/svg">
</g>
<g xmlns="http://www.w3.org/2000/svg">
</g>
</g></svg>
